<svg width="130" height="51" viewBox="0 0 130 51" fill="none" xmlns="http://www.w3.org/2000/svg">
<path d="M14.3997 40.5806H8.79648V17.546H0.352539V11.7823H22.824V17.546H14.3997V40.5806ZM31.5423 13.2282C31.5423 13.737 31.4444 14.2123 31.2483 14.6541C31.0656 15.0959 30.811 15.4842 30.4844 15.8189C30.1578 16.1402 29.7726 16.4013 29.3285 16.6021C28.8973 16.7895 28.4338 16.8832 27.9373 16.8832C27.4411 16.8832 26.9709 16.7895 26.5268 16.6021C26.0958 16.4013 25.717 16.1402 25.3905 15.8189C25.0771 15.4842 24.8224 15.0959 24.6264 14.6541C24.4436 14.2123 24.3522 13.737 24.3522 13.2282C24.3522 12.7329 24.4436 12.2643 24.6264 11.8224C24.8224 11.3672 25.0771 10.979 25.3905 10.6576C25.717 10.3229 26.0958 10.0619 26.5268 9.87444C26.9709 9.67362 27.4411 9.57321 27.9373 9.57321C28.4338 9.57321 28.8973 9.67362 29.3285 9.87444C29.7726 10.0619 30.1578 10.3229 30.4844 10.6576C30.811 10.979 31.0656 11.3672 31.2483 11.8224C31.4444 12.2643 31.5423 12.7329 31.5423 13.2282ZM30.6216 40.5806H25.2338V19.0722H30.6216V40.5806ZM53.0538 23.3498L49.1353 27.3864C48.9395 26.8241 48.6718 26.322 48.3321 25.8802C47.9926 25.425 47.6074 25.0435 47.1763 24.7355C46.7584 24.4276 46.3013 24.1933 45.8048 24.0326C45.3086 23.872 44.7991 23.7916 44.2767 23.7916C43.5453 23.7916 42.8531 23.9456 42.2001 24.2535C41.56 24.5614 40.9983 24.9966 40.5152 25.5589C40.045 26.1078 39.6726 26.7639 39.3985 27.5271C39.1243 28.2902 38.9871 29.1336 38.9871 30.0574C38.9871 30.807 39.1243 31.51 39.3985 32.1662C39.6726 32.822 40.045 33.3979 40.5152 33.893C40.9983 34.3885 41.56 34.7768 42.2001 35.0578C42.8531 35.3391 43.5453 35.4795 44.2767 35.4795C44.7991 35.4795 45.302 35.406 45.7853 35.2588C46.2687 35.1116 46.7191 34.904 47.1372 34.6361C47.5681 34.3551 47.9469 34.0203 48.2735 33.632C48.6129 33.2303 48.8874 32.7886 49.0963 32.3066L53.0145 36.3432C52.5183 37.0663 51.9435 37.7156 51.2905 38.2911C50.6504 38.8669 49.9517 39.3555 49.1942 39.7572C48.4498 40.1589 47.6596 40.4603 46.8237 40.661C46.0009 40.8751 45.1519 40.9823 44.2767 40.9823C42.8009 40.9823 41.41 40.701 40.1038 40.1389C38.8108 39.5631 37.6745 38.78 36.6949 37.7891C35.7282 36.7984 34.9643 35.6402 34.4025 34.3148C33.8411 32.9893 33.5602 31.5704 33.5602 30.0574C33.5602 28.4105 33.8411 26.871 34.4025 25.4384C34.9643 24.0058 35.7282 22.7607 36.6949 21.703C37.6745 20.632 38.8108 19.7885 40.1038 19.1726C41.41 18.5568 42.8009 18.2489 44.2767 18.2489C45.1519 18.2489 46.0073 18.3626 46.8432 18.5903C47.6922 18.8179 48.4955 19.1526 49.253 19.5944C50.0237 20.0228 50.7288 20.5516 51.3689 21.1809C52.0218 21.8102 52.5836 22.5331 53.0538 23.3498ZM61.0667 40.5806H55.679V10.5171H61.0667V29.475L69.0403 19.1124H75.1923L68.2373 28.0692L75.1923 40.5806H69.0403L64.7891 32.7686L61.0667 37.8294V40.5806ZM83.6166 13.2282C83.6166 13.737 83.5185 14.2123 83.3227 14.6541C83.1397 15.0959 82.8851 15.4842 82.5587 15.8189C82.2321 16.1402 81.8467 16.4013 81.4026 16.6021C80.9717 16.7895 80.5081 16.8832 80.0117 16.8832C79.5155 16.8832 79.0452 16.7895 78.6012 16.6021C78.17 16.4013 77.7913 16.1402 77.4649 15.8189C77.1514 15.4842 76.8968 15.0959 76.7007 14.6541C76.518 14.2123 76.4265 13.737 76.4265 13.2282C76.4265 12.7329 76.518 12.2643 76.7007 11.8224C76.8968 11.3672 77.1514 10.979 77.4649 10.6576C77.7913 10.3229 78.17 10.0619 78.6012 9.87444C79.0452 9.67362 79.5155 9.57321 80.0117 9.57321C80.5081 9.57321 80.9717 9.67362 81.4026 9.87444C81.8467 10.0619 82.2321 10.3229 82.5587 10.6576C82.8851 10.979 83.1397 11.3672 83.3227 11.8224C83.5185 12.2643 83.6166 12.7329 83.6166 13.2282ZM82.6957 40.5806H77.3082V19.0722H82.6957V40.5806ZM97.3111 40.5806C96.018 40.5806 94.8033 40.333 93.667 39.8376C92.5307 39.3289 91.5317 38.6393 90.6695 37.769C89.8205 36.8853 89.1478 35.8612 88.6516 34.6964C88.1683 33.5317 87.9267 32.2865 87.9267 30.9611V24.5749H85.3211V19.1124H87.9267V10.5171H93.2556V19.1124H101.366V24.5749H93.2556V30.9611C93.2556 31.5369 93.36 32.079 93.5691 32.5879C93.778 33.0831 94.0653 33.5182 94.431 33.893C94.7969 34.2681 95.2278 34.5692 95.724 34.7968C96.2205 35.0112 96.7493 35.1181 97.3111 35.1181H101.366V40.5806H97.3111ZM120.762 40.5806H103.267L112.103 24.5749H103.267V19.1124H120.762L111.926 35.1181H120.762V40.5806Z" fill="#5F2EEA"/>
<path d="M127.795 23.9223C127.79 23.9199 127.786 23.9185 127.782 23.9163L126.032 22.8802C125.923 23.0074 125.774 23.092 125.611 23.1195C125.448 23.1471 125.281 23.1158 125.138 23.0312C124.995 22.9464 124.885 22.8135 124.826 22.6549C124.768 22.4963 124.765 22.322 124.819 22.1615L123.057 21.1182C123.009 21.0903 122.953 21.0827 122.9 21.0972C122.848 21.1117 122.803 21.147 122.775 21.1955L117.545 30.483L117.544 30.4835C117.531 30.5074 117.522 30.534 117.518 30.5614C117.515 30.5891 117.517 30.6168 117.524 30.6436C117.531 30.6705 117.543 30.6955 117.559 30.7177C117.576 30.7396 117.596 30.758 117.62 30.772L119.382 31.8139C119.491 31.6869 119.64 31.6025 119.803 31.5748C119.966 31.5474 120.133 31.5786 120.276 31.6631C120.419 31.7478 120.529 31.8805 120.587 32.0387C120.646 32.1969 120.649 32.3711 120.596 32.5315L122.336 33.56C122.343 33.5654 122.35 33.5712 122.357 33.5759C122.381 33.5899 122.407 33.5986 122.434 33.6025C122.46 33.606 122.488 33.6041 122.514 33.597C122.54 33.5899 122.564 33.5775 122.586 33.5605C122.607 33.5438 122.625 33.5227 122.639 33.4985V33.4988L127.87 24.2107C127.884 24.1867 127.892 24.1602 127.896 24.1327C127.899 24.1052 127.898 24.0773 127.89 24.0505C127.884 24.0237 127.871 23.9986 127.855 23.9766C127.839 23.9546 127.818 23.9362 127.795 23.9223ZM126.295 24.6433L122.217 31.8835C122.203 31.9077 122.185 31.9288 122.164 31.9455C122.142 31.9625 122.118 31.9748 122.092 31.982C122.066 31.9891 122.038 31.991 122.012 31.9875C121.985 31.9839 121.959 31.9749 121.935 31.9609L119.195 30.339C119.172 30.325 119.151 30.3067 119.135 30.2847C119.118 30.2628 119.106 30.2376 119.099 30.211C119.092 30.1841 119.09 30.1561 119.094 30.1287C119.098 30.1013 119.106 30.0747 119.12 30.0508L123.198 22.8105C123.225 22.762 123.27 22.7267 123.323 22.7122C123.375 22.6977 123.431 22.7053 123.479 22.7333L126.219 24.3552C126.243 24.3691 126.263 24.3875 126.28 24.4095C126.296 24.4314 126.308 24.4565 126.315 24.4833C126.322 24.51 126.324 24.5379 126.321 24.5654C126.317 24.5928 126.308 24.6193 126.295 24.6433Z" fill="#5F2EEA"/>
<path d="M124.098 27.1535L123.23 26.9879L123.108 26.1373C123.106 26.1248 123.101 26.1131 123.092 26.104C123.084 26.0948 123.072 26.0886 123.06 26.0862C123.048 26.0839 123.035 26.0854 123.024 26.0907C123.013 26.0959 123.004 26.1046 122.997 26.1156L122.576 26.863L121.73 26.7017C121.718 26.6994 121.705 26.701 121.694 26.7063C121.683 26.7116 121.673 26.7203 121.667 26.7313C121.661 26.7422 121.658 26.7548 121.659 26.7674C121.66 26.78 121.665 26.792 121.673 26.8016L122.233 27.4726L121.812 28.2197C121.806 28.231 121.803 28.2436 121.804 28.2562C121.805 28.2691 121.811 28.2812 121.819 28.2908C121.827 28.3004 121.838 28.3069 121.85 28.3099C121.862 28.313 121.874 28.3121 121.886 28.3075L122.665 27.9905L123.239 28.6785C123.247 28.6878 123.258 28.6946 123.27 28.6977C123.282 28.7007 123.294 28.6998 123.306 28.6955C123.317 28.6911 123.327 28.6831 123.334 28.6727C123.341 28.6623 123.345 28.6499 123.344 28.6373L123.329 27.7149L124.116 27.2669C124.127 27.2607 124.136 27.2513 124.141 27.2399C124.146 27.2286 124.148 27.2159 124.147 27.2034C124.144 27.191 124.138 27.1796 124.13 27.1706C124.121 27.1617 124.11 27.1557 124.098 27.1535Z" fill="#5F2EEA"/>
</svg>
